<svg width="551" height="359" viewBox="0 0 551 359" fill="none" xmlns="http://www.w3.org/2000/svg">
<path d="M543.872 9.60156C543.872 9.60156 564.107 79.6276 501.659 105.626" stroke="black" stroke-width="2" stroke-miterlimit="10" stroke-linecap="round" stroke-linejoin="round"/>
<path d="M543.683 14.277C547.228 14.277 550.102 11.4042 550.102 7.86044C550.102 4.31665 547.228 1.44385 543.683 1.44385C540.138 1.44385 537.264 4.31665 537.264 7.86044C537.264 11.4042 540.138 14.277 543.683 14.277Z" fill="white" stroke="black" stroke-width="2" stroke-miterlimit="10" stroke-linecap="round" stroke-linejoin="round"/>
<path d="M225.544 13.1551L490.159 37.7984C498.05 38.4355 504.137 41.9445 504.137 50.138C504.415 63.2942 504.694 76.4415 504.972 89.5977C505.448 112.006 505.924 134.424 506.399 156.833C506.687 170.142 508.5 185.147 501.049 197.01C495.976 205.096 486.855 210.714 477.079 209.458L225.858 172.125C218.263 171.147 212.563 164.47 212.563 156.546L193.306 28.8331C193.324 19.6794 216.728 12.4372 225.544 13.1551Z" fill="white" stroke="black" stroke-width="2" stroke-miterlimit="10" stroke-linecap="round" stroke-linejoin="round"/>
<path d="M208.298 18.7011L476.405 45.6956C484.296 46.3328 490.383 53.1532 490.383 61.3467C490.437 75.508 490.482 89.6604 490.536 103.822C490.617 126.607 490.742 149.393 490.787 172.17C490.796 177.868 491.164 183.666 490.787 189.364C490.213 198.114 484.566 210.714 473.811 209.332L205.704 174.799C198.109 173.821 192.408 167.144 192.408 159.22L191.95 39.6021C191.95 30.4483 199.482 17.9831 208.298 18.7011Z" fill="black"/>
<path d="M220.831 20.1278L221.289 170.079L192.408 140.993L191.609 38.1122C191.609 38.1122 190.918 22.9906 202.265 19.5535C209.914 17.2292 220.831 20.1278 220.831 20.1278Z" fill="#45E0A8"/>
<path d="M496.802 38.9111L480.759 48.0738" stroke="black" stroke-width="2" stroke-miterlimit="10" stroke-linecap="round" stroke-linejoin="round"/>
<path d="M208.298 18.7011L476.405 45.6956C484.296 46.3328 490.383 53.1532 490.383 61.3467L490.841 187.614C489.692 199.99 482.851 210.49 473.802 209.332L205.695 174.799C198.1 173.821 192.399 167.144 192.399 159.22L191.25 43.9456C190.576 23.3318 199.482 17.9832 208.298 18.7011Z" stroke="black" stroke-width="2" stroke-miterlimit="10" stroke-linecap="round" stroke-linejoin="round"/>
<path d="M188.736 160.494C187.12 160.494 185.648 159.525 185.01 158.017C185.01 158.017 177.496 119.267 178.367 121.322L187.659 143.443L207.463 42.797C207.975 40.6252 210.157 39.2791 212.32 39.7906C214.493 40.3022 215.839 42.4739 215.328 44.6457L192.668 157.38C192.264 159.085 190.819 160.333 189.068 160.476C188.96 160.485 188.853 160.494 188.736 160.494Z" fill="black" stroke="black" stroke-width="2" stroke-miterlimit="10" stroke-linecap="round" stroke-linejoin="round"/>
<path d="M386.324 357.856L503.724 297.074C505.537 296.131 504.891 293.394 502.844 293.376L431.248 292.443L386.324 357.856Z" fill="black" stroke="black" stroke-width="2" stroke-miterlimit="10" stroke-linecap="round" stroke-linejoin="round"/>
<path d="M479.844 211.217L201.233 176.962L101.177 213.963L393.659 262.998L479.844 211.217Z" fill="black" stroke="black" stroke-width="2" stroke-miterlimit="10" stroke-linecap="round" stroke-linejoin="round"/>
<path d="M179.552 226.509C178.178 226.428 176.886 225.656 176.203 224.355L152.063 178.47C151.021 176.495 151.784 174.054 153.759 173.013C155.734 171.972 158.176 172.735 159.218 174.709L183.358 220.595C184.4 222.569 183.637 225.01 181.662 226.051C180.988 226.401 180.261 226.554 179.552 226.509Z" fill="black" stroke="black" stroke-width="2" stroke-miterlimit="10" stroke-linecap="round" stroke-linejoin="round"/>
<path d="M201.583 234.272C200.066 234.272 198.62 233.419 197.929 231.956L151.497 133.715C150.545 131.696 151.407 129.291 153.427 128.34C155.447 127.389 157.853 128.25 158.805 130.269L205.237 228.519C206.188 230.538 205.327 232.944 203.307 233.895C202.741 234.146 202.157 234.272 201.583 234.272Z" fill="black" stroke="black" stroke-width="2" stroke-miterlimit="10" stroke-linecap="round" stroke-linejoin="round"/>
<path d="M105.999 215.803L394.117 262.541L386.782 357.856L114.931 302.413L105.999 215.803Z" fill="white"/>
<path d="M137.393 306.99L127.769 219.922L105.999 215.803L114.931 302.413L137.393 306.99Z" fill="#45E0A8"/>
<path d="M209.106 153.791L466.961 170.949C469.026 171.21 469.052 186.905 467.212 187.884L401.487 225.629C401.092 225.845 400.634 225.926 400.185 225.863L130.66 186.771C128.487 186.466 128.128 170.824 130.157 170.016L208.038 153.934C208.379 153.79 208.747 153.737 209.106 153.791Z" fill="#45E0A8" stroke="black" stroke-width="2" stroke-miterlimit="10" stroke-linecap="round" stroke-linejoin="round"/>
<path d="M209.106 137.736L466.476 170.599C468.541 170.86 469.052 173.624 467.212 174.602L401.487 209.574C401.092 209.79 400.634 209.871 400.185 209.808L132.034 172.565C129.861 172.26 129.502 169.28 131.531 168.463L208.038 137.87C208.379 137.736 208.747 137.691 209.106 137.736Z" fill="white"/>
<path d="M208.047 137.87L464.6 170.007L468.379 172.843L455.739 180.273L188.17 145.453L208.047 137.87Z" fill="white"/>
<path d="M210.65 143.12C209.124 144.099 206.467 144.754 204.707 144.583C202.947 144.413 202.786 143.47 204.357 142.483C205.928 141.496 208.585 140.841 210.3 141.02C212.015 141.2 212.176 142.142 210.65 143.12Z" stroke="black" stroke-width="2" stroke-miterlimit="10" stroke-linecap="round" stroke-linejoin="round"/>
<path d="M220.75 144.386C219.287 145.355 216.683 145.992 214.924 145.821C213.164 145.651 212.958 144.727 214.457 143.748C215.956 142.77 218.569 142.133 220.283 142.312C221.998 142.492 222.204 143.416 220.75 144.386Z" fill="white" stroke="white" stroke-width="2" stroke-miterlimit="10" stroke-linecap="round" stroke-linejoin="round"/>
<path d="M230.841 145.642C229.44 146.593 226.882 147.23 225.122 147.06C223.362 146.889 223.102 145.974 224.547 145.014C225.993 144.053 228.551 143.416 230.266 143.596C231.981 143.775 232.241 144.691 230.841 145.642Z" fill="black" stroke="black" stroke-width="2" stroke-miterlimit="10" stroke-linecap="round" stroke-linejoin="round"/>
<path d="M209.106 137.736L466.476 170.599C468.541 170.86 469.052 173.624 467.212 174.602L401.487 209.574C401.092 209.79 400.634 209.871 400.185 209.808L132.034 172.565C129.861 172.26 129.502 169.28 131.531 168.463L208.038 137.87C208.379 137.736 208.747 137.691 209.106 137.736Z" stroke="black" stroke-width="2" stroke-miterlimit="10" stroke-linecap="round" stroke-linejoin="round"/>
<path d="M186.797 152.561L292.948 167.423C293.801 167.53 294.016 168.679 293.253 169.083L266.006 183.576C265.845 183.666 265.656 183.693 265.468 183.675L154.307 168.23C153.409 168.105 153.257 166.866 154.1 166.534L155.752 165.879L186.357 152.624C186.492 152.561 186.644 152.543 186.797 152.561Z" fill="white" stroke="#45E0A8" stroke-width="2" stroke-miterlimit="10" stroke-linecap="round" stroke-linejoin="round"/>
<path d="M155.743 165.87L199.285 162.182L203.414 169.514L269.651 171.802L266.006 183.576L154.298 168.23L155.743 165.87Z" fill="#45E0A8" stroke="#45E0A8" stroke-width="2" stroke-miterlimit="10" stroke-linecap="round" stroke-linejoin="round"/>
<path d="M221.244 163.878C219.843 164.829 217.285 165.466 215.525 165.296C213.766 165.125 213.505 164.21 214.951 163.249C216.396 162.289 218.955 161.652 220.669 161.832C222.384 162.002 222.644 162.926 221.244 163.878Z" fill="#45E0A8" stroke="#45E0A8" stroke-width="2" stroke-miterlimit="10" stroke-linecap="round" stroke-linejoin="round"/>
<path d="M226.37 109.781L476.639 126.437C478.641 126.697 478.667 141.927 476.881 142.878L413.086 179.511C412.7 179.717 412.26 179.798 411.829 179.735L150.231 141.792C148.121 141.496 147.771 126.312 149.746 125.522L225.338 109.916C225.661 109.781 226.02 109.736 226.37 109.781Z" fill="#45E0A8" stroke="black" stroke-width="2" stroke-miterlimit="10" stroke-linecap="round" stroke-linejoin="round"/>
<path d="M226.37 94.2015L476.172 126.105C478.174 126.365 478.667 129.04 476.881 129.991L413.086 163.931C412.7 164.138 412.26 164.219 411.829 164.156L151.56 128.008C149.45 127.711 149.1 124.822 151.075 124.032L225.338 94.3272C225.661 94.2015 226.02 94.1567 226.37 94.2015Z" fill="white"/>
<path d="M225.338 94.3271L474.34 125.522L478.012 128.268L465.749 135.492L206.045 101.695L225.338 94.3271Z" fill="#45E0A8"/>
<path d="M227.869 99.4244C226.388 100.376 223.811 101.013 222.097 100.842C220.391 100.681 220.238 99.7654 221.756 98.8052C223.273 97.8449 225.858 97.2077 227.528 97.3872C229.189 97.5667 229.342 98.4731 227.869 99.4244Z" fill="white" stroke="white" stroke-width="2" stroke-miterlimit="10" stroke-linecap="round" stroke-linejoin="round"/>
<path d="M237.664 100.654C236.245 101.587 233.714 102.215 232.008 102.054C230.302 101.892 230.096 100.986 231.559 100.044C233.023 99.1013 235.554 98.4731 237.215 98.6436C238.876 98.8142 239.082 99.7116 237.664 100.654Z" fill="black" stroke="black" stroke-width="2" stroke-miterlimit="10" stroke-linecap="round" stroke-linejoin="round"/>
<path d="M247.458 101.874C246.103 102.799 243.616 103.418 241.91 103.247C240.205 103.077 239.953 102.188 241.354 101.255C242.754 100.322 245.241 99.7116 246.902 99.8821C248.563 100.053 248.814 100.95 247.458 101.874Z" fill="black" stroke="black" stroke-width="2" stroke-miterlimit="10" stroke-linecap="round" stroke-linejoin="round"/>
<path d="M205.82 102.153L466.431 135.259" stroke="black" stroke-width="2" stroke-miterlimit="10" stroke-linecap="round" stroke-linejoin="round"/>
<path d="M226.37 94.2015L476.172 126.105C478.174 126.365 478.667 129.04 476.881 129.991L413.086 163.931C412.7 164.138 412.26 164.219 411.829 164.156L151.56 128.008C149.45 127.711 149.1 124.822 151.075 124.032L225.338 94.3272C225.661 94.2015 226.02 94.1567 226.37 94.2015Z" stroke="black" stroke-width="2" stroke-miterlimit="10" stroke-linecap="round" stroke-linejoin="round"/>
<path d="M324.665 136.982L315.742 141.864L301.746 140.186L292.804 78.093L301.512 73.9648L324.665 75.3379V136.982Z" fill="#45E0A8" stroke="black" stroke-width="2" stroke-miterlimit="10" stroke-linecap="round" stroke-linejoin="round"/>
<path d="M316.182 79.9237L324.665 75.3379" stroke="black" stroke-width="2" stroke-miterlimit="10" stroke-linecap="round" stroke-linejoin="round"/>
<path d="M316.182 141.792L293.262 139.037L293.037 78.5508L316.182 79.9238V141.792Z" fill="white" stroke="black" stroke-width="2" stroke-miterlimit="10" stroke-linecap="round" stroke-linejoin="round"/>
<path d="M278.251 130.907L269.669 135.905L254.865 131.598L246.758 118.19L255.475 114.062L278.593 116.817L278.251 130.907Z" fill="#45E0A8" stroke="black" stroke-width="2" stroke-miterlimit="10" stroke-linecap="round" stroke-linejoin="round"/>
<path d="M270.109 121.394L278.592 116.817" stroke="black" stroke-width="2" stroke-miterlimit="10" stroke-linecap="round" stroke-linejoin="round"/>
<path d="M270.109 135.834L246.614 132.396L246.507 118.648L270.109 121.394V135.834Z" fill="black" stroke="black" stroke-width="2" stroke-miterlimit="10" stroke-linecap="round" stroke-linejoin="round"/>
<path d="M371.313 142.591L363.153 148.639L348.043 146.827L339.102 46.7009L347.819 42.5728L370.963 43.9548L371.313 142.591Z" fill="#45E0A8" stroke="black" stroke-width="2" stroke-miterlimit="10" stroke-linecap="round" stroke-linejoin="round"/>
<path d="M362.488 48.5315L370.963 43.9546" stroke="black" stroke-width="2" stroke-miterlimit="10" stroke-linecap="round" stroke-linejoin="round"/>
<path d="M362.488 148.433L339.568 145.687L339.335 47.1587L362.488 48.5318V148.433Z" fill="#45E0A8" stroke="black" stroke-width="2" stroke-miterlimit="10" stroke-linecap="round" stroke-linejoin="round"/>
<path d="M418.41 150.264L409.199 155.352L395.49 153.701L386.557 13.0207L395.265 8.89258L418.41 10.2656V150.264Z" fill="#45E0A8" stroke="black" stroke-width="2" stroke-miterlimit="10" stroke-linecap="round" stroke-linejoin="round"/>
<path d="M409.935 14.8515L418.41 10.2656" stroke="black" stroke-width="2" stroke-miterlimit="10" stroke-linecap="round" stroke-linejoin="round"/>
<path d="M409.935 155.308L387.015 152.561L386.781 13.4785L409.935 14.8516V155.308Z" fill="white" stroke="black" stroke-width="2" stroke-miterlimit="10" stroke-linecap="round" stroke-linejoin="round"/>
<path d="M412.745 164.838L412.458 179.367" stroke="black" stroke-width="2" stroke-miterlimit="10" stroke-linecap="round" stroke-linejoin="round"/>
<path d="M400.203 209.763L400.302 225.423" stroke="black" stroke-width="2" stroke-miterlimit="10" stroke-linecap="round" stroke-linejoin="round"/>
<path d="M429.676 248.253C428.312 248.164 427.019 247.383 426.346 246.073L409.342 213.173C408.319 211.19 409.091 208.758 411.075 207.735C413.059 206.712 415.492 207.483 416.515 209.467L433.519 242.366C434.542 244.35 433.77 246.782 431.786 247.805C431.113 248.164 430.386 248.298 429.676 248.253Z" fill="#45E0A8" stroke="black" stroke-width="2" stroke-miterlimit="10" stroke-linecap="round" stroke-linejoin="round"/>
<path d="M8.34912 264.605C8.34912 264.605 33.4235 198.285 92.3705 192.954C151.317 187.624 172.442 240.868 250.358 226.922" stroke="black" stroke-width="2" stroke-miterlimit="10" stroke-linecap="round" stroke-linejoin="round"/>
<path d="M7.31669 272.053C10.8618 272.053 13.7357 269.181 13.7357 265.637C13.7357 262.093 10.8618 259.22 7.31669 259.22C3.77158 259.22 0.897705 262.093 0.897705 265.637C0.897705 269.181 3.77158 272.053 7.31669 272.053Z" fill="white" stroke="black" stroke-width="2" stroke-miterlimit="10" stroke-linecap="round" stroke-linejoin="round"/>
<path d="M103.242 197.809C106.787 197.809 109.661 194.936 109.661 191.393C109.661 187.849 106.787 184.976 103.242 184.976C99.6972 184.976 96.8234 187.849 96.8234 191.393C96.8234 194.936 99.6972 197.809 103.242 197.809Z" fill="white" stroke="black" stroke-width="2" stroke-miterlimit="10" stroke-linecap="round" stroke-linejoin="round"/>
<path d="M105.999 215.803L394.117 262.541L386.782 357.856L114.931 302.413L105.999 215.803Z" stroke="black" stroke-width="2" stroke-miterlimit="10" stroke-linecap="round" stroke-linejoin="round"/>
<path d="M460.129 305.85L386.324 357.856L392.509 264.371L473.882 217.176L460.129 305.85Z" fill="white" stroke="black" stroke-width="2" stroke-miterlimit="10" stroke-linecap="round" stroke-linejoin="round"/>
<path d="M305.929 174.503L377.993 185.487" stroke="#45E0A8" stroke-width="2" stroke-miterlimit="10" stroke-linecap="round" stroke-linejoin="round"/>
<path d="M330.752 186.708L397.95 196.948" stroke="#45E0A8" stroke-width="2" stroke-miterlimit="10" stroke-linecap="round" stroke-linejoin="round"/>
<path d="M293.549 181.027L323.445 185.586" stroke="#45E0A8" stroke-width="2" stroke-miterlimit="10" stroke-linecap="round" stroke-linejoin="round"/>
<path d="M415.5 216.199C416.32 215.726 416.218 214.013 415.271 212.373C414.324 210.734 412.891 209.788 412.071 210.262C411.251 210.735 411.354 212.448 412.301 214.087C413.248 215.727 414.68 216.673 415.5 216.199Z" fill="black"/>
<path d="M462.876 190.504C461.26 190.504 459.788 189.535 459.15 188.027L445.055 154.464C444.194 152.409 445.163 150.039 447.219 149.178C449.284 148.316 451.645 149.286 452.507 151.341L461.799 173.462C461.799 173.462 490.107 72.8425 490.311 69.5943C490.516 66.346 490.516 81.9728 490.516 81.9728C490.516 81.9728 490.516 84.6281 490.516 86.896V99.7569L466.808 187.39C466.404 189.095 464.959 190.343 463.208 190.486C463.1 190.504 462.993 190.504 462.876 190.504Z" fill="#45E0A8" stroke="black" stroke-width="2" stroke-miterlimit="10" stroke-linecap="round" stroke-linejoin="round"/>
<path d="M490.383 61.3467L490.85 187.614" stroke="black" stroke-width="2" stroke-miterlimit="10" stroke-linecap="round" stroke-linejoin="round"/>
<path d="M450.731 157.814C451.609 157.458 451.744 155.748 451.033 153.993C450.322 152.238 449.034 151.104 448.157 151.459C447.279 151.814 447.144 153.525 447.855 155.28C448.566 157.034 449.854 158.169 450.731 157.814Z" fill="black"/>
<path d="M212.513 46.5317C212.922 44.6828 212.503 43.0186 211.578 42.8145C210.653 42.6104 209.573 43.9437 209.164 45.7925C208.756 47.6414 209.175 49.3056 210.099 49.5097C211.024 49.7138 212.105 48.3805 212.513 46.5317Z" fill="#45E0A8"/>
<path d="M465.189 183.347C465.659 181.513 465.296 179.836 464.379 179.601C463.462 179.366 462.337 180.662 461.866 182.496C461.396 184.33 461.759 186.007 462.676 186.243C463.593 186.478 464.718 185.181 465.189 183.347Z" fill="black"/>
<path d="M477.096 209.449L448.44 206.864" stroke="#45E0A8" stroke-width="2" stroke-miterlimit="10" stroke-linecap="round" stroke-linejoin="round"/>
<path d="M454.095 233.886C452.614 233.886 451.196 233.069 450.487 231.66L419.146 169.433C418.14 167.441 418.948 165.009 420.941 164.013C422.934 163.007 425.358 163.815 426.364 165.807L457.704 228.035C458.71 230.027 457.902 232.459 455.909 233.455C455.325 233.742 454.706 233.886 454.095 233.886Z" fill="#45E0A8" stroke="black" stroke-width="2" stroke-miterlimit="10" stroke-linecap="round" stroke-linejoin="round"/>
<path d="M388.236 261.509L100.72 214.421L103.242 226.796C103.512 228.726 104.993 230.269 106.914 230.61L388.586 278.73C393.03 279.52 397.618 278.649 401.46 276.271L473.963 231.49C476.253 229.955 478.605 226.769 479.045 224.05L480.302 212.132L403.462 258.574C398.902 261.329 393.506 262.37 388.236 261.509Z" fill="#45E0A8" stroke="black" stroke-width="2" stroke-miterlimit="10" stroke-linecap="round" stroke-linejoin="round"/>
<path d="M275.971 271.973C270.477 266.166 272.946 256.752 280.038 256.438L283.71 256.277L282.31 243.821L278.629 244.108C271.141 244.7 265.854 234.55 270.576 228.654L273.269 225.289L264.363 216.512L261.886 219.563C257.325 225.172 248.141 221.134 247.189 213.093L246.677 208.776L235.491 208.767L235.976 213.532C236.793 221.564 228.399 225.441 222.707 219.662L219.547 216.449L210.623 218.881L203.666 227.685L212.59 225.253L215.866 228.421C221.774 234.119 219.179 244.009 211.817 243.901L207.724 243.838L209.124 256.277L212.913 256.259C220.22 256.214 225.059 265.969 220.598 271.766L218.183 274.907L226.11 278.811L229.494 280.678C233.992 275.087 243.113 278.982 244.191 286.951L244.792 291.393C244.792 291.402 244.801 291.411 244.81 291.411L251.328 292.102L255.835 290.137C254.748 280.471 263.044 275.939 269.669 283.846L278.808 275.006C278.817 274.988 278.817 274.97 278.799 274.952L275.971 271.973ZM256.84 262.388C254.766 264.892 251.768 266.346 248.509 266.409C234.369 266.705 225.598 248.667 234.594 237.79C236.667 235.286 239.666 233.832 242.925 233.769C257.065 233.473 265.836 251.52 256.84 262.388Z" fill="black" stroke="black" stroke-width="2" stroke-miterlimit="10" stroke-linecap="round" stroke-linejoin="round"/>
<path d="M273.072 271.865C267.577 266.058 270.046 256.644 277.139 256.33L280.81 256.169L279.41 243.713L275.729 244C268.242 244.592 262.954 234.442 267.676 228.546L270.369 225.181L261.464 216.404L258.986 219.455C254.425 225.064 245.241 221.026 244.289 212.985L243.778 208.668L232.592 208.659L233.076 213.425C233.893 221.456 225.499 225.333 219.808 219.554L216.647 216.341L207.724 218.773L200.766 227.577L209.69 225.145L212.967 228.313C218.874 234.011 216.279 243.901 208.918 243.793L204.824 243.731L206.224 256.169L210.013 256.151C217.321 256.106 222.16 265.861 217.698 271.658L215.283 274.799L224.18 283.567L226.595 280.57C231.092 274.979 240.214 278.874 241.291 286.843L241.892 291.285C241.892 291.294 241.901 291.303 241.91 291.303L253.105 291.312L252.935 290.029C251.849 280.363 262.352 275.76 268.978 283.666L275.909 274.907C275.918 274.889 275.918 274.871 275.9 274.853L273.072 271.865ZM253.94 262.28C251.867 264.784 248.868 266.238 245.609 266.301C231.469 266.597 222.698 248.559 231.694 237.682C233.768 235.178 236.766 233.724 240.025 233.661C254.174 233.365 262.945 251.404 253.94 262.28Z" fill="#45E0A8" stroke="black" stroke-width="2" stroke-miterlimit="10" stroke-linecap="round" stroke-linejoin="round"/>
<path d="M223.668 211.091L232.591 208.659L243.778 208.668L234.854 211.1L223.668 211.091Z" fill="#45E0A8" stroke="black" stroke-width="2" stroke-miterlimit="10" stroke-linecap="round" stroke-linejoin="round"/>
<path d="M252.549 218.836L261.473 216.404L270.378 225.19L261.455 227.622L252.549 218.836Z" fill="#45E0A8" stroke="black" stroke-width="2" stroke-miterlimit="10" stroke-linecap="round" stroke-linejoin="round"/>
<path d="M270.486 246.144L279.41 243.712L280.81 256.169L271.887 258.601L270.486 246.144Z" fill="#45E0A8" stroke="black" stroke-width="2" stroke-miterlimit="10" stroke-linecap="round" stroke-linejoin="round"/>
<path d="M266.976 277.276L275.9 274.844L268.969 283.657L260.045 286.089L266.976 277.276Z" fill="#45E0A8" stroke="black" stroke-width="2" stroke-miterlimit="10" stroke-linecap="round" stroke-linejoin="round"/>
<path d="M241.91 291.303L232.987 293.735L244.173 293.744L253.096 291.312L241.91 291.303Z" fill="black" stroke="black" stroke-width="2" stroke-miterlimit="10" stroke-linecap="round" stroke-linejoin="round"/>
<path d="M215.256 285.999L224.18 283.567L226.595 280.57L206.359 277.231L215.256 285.999Z" fill="#45E0A8" stroke="black" stroke-width="2" stroke-miterlimit="10" stroke-linecap="round" stroke-linejoin="round"/>
<path d="M195.9 246.162L204.824 243.73L206.224 256.169L197.292 258.601L195.9 246.162Z" fill="black" stroke="black" stroke-width="2" stroke-miterlimit="10" stroke-linecap="round" stroke-linejoin="round"/>
<path d="M266.976 277.276L264.157 274.288C258.663 268.481 261.131 259.067 268.224 258.753L271.896 258.592L270.495 246.135L266.814 246.423C259.327 247.015 254.039 236.865 258.761 230.969L261.455 227.604L252.549 218.827L250.071 221.878C245.51 227.487 236.326 223.449 235.375 215.408L234.863 211.091L223.677 211.082L224.162 215.847C224.979 223.879 216.585 227.756 210.893 221.977L207.733 218.764L200.775 227.568L204.052 230.736C209.959 236.434 207.365 246.324 200.003 246.216L195.909 246.153L197.31 258.592L201.098 258.574C208.406 258.529 213.245 268.284 208.783 274.081L206.368 277.222L215.265 285.99L217.68 282.993C222.178 277.402 231.299 281.297 232.376 289.266L232.978 293.708C232.978 293.717 232.987 293.726 232.996 293.726L244.191 293.735L244.02 292.451C242.934 282.786 253.438 278.182 260.063 286.089L266.994 277.33C266.985 277.321 266.985 277.294 266.976 277.276ZM236.685 268.733C222.546 269.029 213.775 250.991 222.77 240.114C224.844 237.61 227.843 236.156 231.101 236.093C245.241 235.797 254.012 253.835 245.017 264.712C242.943 267.216 239.944 268.67 236.685 268.733Z" fill="white" stroke="black" stroke-width="2" stroke-miterlimit="10" stroke-linecap="round" stroke-linejoin="round"/>
<path d="M425.043 172.02C425.863 171.547 425.76 169.834 424.813 168.195C423.866 166.555 422.433 165.61 421.613 166.083C420.793 166.556 420.896 168.269 421.843 169.909C422.79 171.548 424.223 172.494 425.043 172.02Z" fill="black"/>
<path d="M461.969 172.861L458.674 185.981" stroke="black" stroke-width="2" stroke-miterlimit="10" stroke-linecap="round" stroke-linejoin="round"/>
</svg>
